HIERARCHY
ROOT Hips
{
  OFFSET -95.5816 95.0704 -75.333
  CHANNELS 6 Xposition Yposition Zposition Zrotation Xrotation Yrotation
  JOINT RightUpLeg
  {
    OFFSET -8.9458 -8.66707 0.101652
    CHANNELS 3 Zrotation Xrotation Yrotation
    JOINT RightLeg
    {
      OFFSET 0 -44.4227 1.3727
      CHANNELS 3 Zrotation Xrotation Yrotation
      JOINT RightFoot
      {
        OFFSET 0.253549 -42.0924 -1.46059
        CHANNELS 3 Zrotation Xrotation Yrotation
        JOINT RightToes
        {
          OFFSET 0.04 -4.41509 8.4991
          CHANNELS 3 Zrotation Xrotation Yrotation
          End Site
          {
            OFFSET -0.08 -0.137448 9.77979
          }
        }
      }
    }
  }
  JOINT Spine
  {
    OFFSET 0 11.8905 0
    CHANNELS 3 Zrotation Xrotation Yrotation
    JOINT Spine1
    {
      OFFSET 0 25.6574 0.127663
      CHANNELS 3 Zrotation Xrotation Yrotation
      JOINT HEad
      {
        OFFSET 0 8.73416 0.011341
        CHANNELS 3 Zrotation Xrotation Yrotation
        End Site
        {
          OFFSET -0.29 12.7742 2.51395
        }
      }
      JOINT LeftShoulder1
      {
        OFFSET 8.99 -0.362252 -0.22
        CHANNELS 3 Zrotation Xrotation Yrotation
        JOINT LeftArm
        {
          OFFSET 10.2827 -0.00338 0.322123
          CHANNELS 3 Zrotation Xrotation Yrotation
          JOINT LeftForeArm
          {
            OFFSET 32.7669 0.099144 -1.42434
            CHANNELS 3 Zrotation Xrotation Yrotation
            JOINT LeftHand
            {
              OFFSET 27.5643 0.085362 1.02216
              CHANNELS 3 Zrotation Xrotation Yrotation
              End Site
              {
                OFFSET 16.7443 -0.6 1.50291
              }
            }
          }
        }
      }
      JOINT RightShoulder
      {
        OFFSET -8.99 -0.362252 -0.22
        CHANNELS 3 Zrotation Xrotation Yrotation
        JOINT RightArm
        {
          OFFSET -10.2827 -0.00338 0.322123
          CHANNELS 3 Zrotation Xrotation Yrotation
          JOINT RightForeArm
          {
            OFFSET -32.8971 0.099144 -1.42434
            CHANNELS 3 Zrotation Xrotation Yrotation
            JOINT RightHand
            {
              OFFSET -27.4921 0.085362 1.02216
              CHANNELS 3 Zrotation Xrotation Yrotation
              End Site
              {
                OFFSET -16.6312 -0.6 1.50291
              }
            }
          }
        }
      }
    }
  }
  JOINT LeftUpLeg
  {
    OFFSET 8.9458 -8.66707 0.101652
    CHANNELS 3 Zrotation Xrotation Yrotation
    JOINT LeftLeg
    {
      OFFSET 0 -44.4227 1.3727
      CHANNELS 3 Zrotation Xrotation Yrotation
      JOINT LeftFoot
      {
        OFFSET -0.253549 -42.0924 -1.46059
        CHANNELS 3 Zrotation Xrotation Yrotation
        JOINT LeftToes
        {
          OFFSET -0.04 -4.41509 8.4991
          CHANNELS 3 Zrotation Xrotation Yrotation
          End Site
          {
            OFFSET 0.08 -0.047448 9.77979
          }
        }
      }
    }
  }
}
MOTION
Frames:	11
Frame Time:	0.0166667
-92.8031 91.4461 -33.2846 2.23493 -3.83001 -8.96489 -14.8494 -22.2258 6.6224 -5.43345 14.2875 24.409 30.0933 22.8657 -8.12658 -42.0782 -39.596 4.5277 -5.04778 7.0451 -5.63024 -11.8434 14.3621 -9.84924 -0.995318 5.65268 33.5479 -3.18055e-015 0 -3.18055e-015 -56.0526 2.01131 -48.9982 71.4339 -8.55941 -118.227 -41.0978 -2.96881 37.0464 21.8151 -1.2162 -7.48013 70.1626 -24.6509 41.4204 -5.63214 23.4106 143.589 3.49636 9.79215 -7.29886 34.0312 5.62427 -14.4282 -12.216 20.3722 28.1045 -3.09195 17.1877 0.548684 18.5695 -24.8696 5.75487 
-91.789 90.7578 -32.9526 1.63969 -4.87407 -9.50196 -15.1215 -22.4948 7.5921 -4.57295 16.7102 23.7427 29.8487 22.9235 -8.07258 -44.4216 -40.8972 3.11815 -4.88112 7.67693 -4.39922 -12.9649 15.3789 -7.16486 0.182079 6.33186 28.8872 7.15625e-015 -3.18055e-015 -0 -59.2387 3.34817 -42.5312 73.9092 -11.9581 -116.562 -44.343 -3.54355 35.8526 22.9264 -1.2499 -7.38074 67.7865 -28.8831 37.7445 -6.8185 20.768 146.694 17.0944 7.70401 -18.4225 36.3791 3.44321 -15.262 -15.2177 22.1142 29.5265 -6.22309 15.0412 1.12207 16.8161 -22.8251 5.12179 
-90.6544 89.882 -32.6111 0.749537 -6.11887 -9.70402 -15.2024 -22.6208 8.56552 -3.80572 19.5165 22.6615 29.859 23.3084 -8.17589 -47.6078 -42.6936 1.38864 -4.59692 8.44814 -3.38382 -13.7793 16.6871 -4.87975 1.47236 6.39152 23.4885 -2.38542e-015 -3.18055e-015 -0 -62.9235 0.730236 -36.7583 68.1426 -10.4937 -117.218 -41.9998 -2.92453 36.2249 25.0112 -1.56885 -8.16439 64.1037 -31.7102 34.1191 -8.07619 18.2638 148.876 28.8729 4.52301 -24.6122 38.6606 1.26409 -16.0341 -18.1316 23.8376 29.9264 -8.84502 14.307 1.58885 16.6056 -22.5557 5.11118 
-89.4465 88.827 -32.2769 -0.335058 -7.58009 -9.47304 -15.1661 -22.4087 9.30929 -3.32962 22.3727 21.3769 30.4168 24.0713 -8.53888 -51.8887 -45.0462 -0.808366 -4.20175 9.34915 -2.61624 -14.2577 18.3066 -3.08691 2.8198 5.63956 17.7061 3.18055e-015 0 -0 -65.7672 -4.78612 -32.1874 57.2158 -5.73175 -119.447 -36.2534 -1.4776 37.4039 27.0039 -1.97481 -9.16086 59.6503 -32.5378 30.2822 -9.05332 16.1236 149.529 35.5342 2.48523 -26.7901 40.5831 -0.902398 -16.3554 -20.34 25.4392 28.2146 -10.9616 15.4198 2.09471 18.5359 -24.7092 6.09869 
-88.2148 87.5966 -31.9493 -1.47353 -9.20304 -8.88321 -15.0727 -21.8772 9.69085 -3.32706 25.133 20.3278 31.6115 24.9743 -9.14197 -57.2634 -47.6477 -3.76263 -3.77084 10.3023 -2.0519 -14.424 20.1085 -1.73057 4.40142 4.25294 11.9518 3.97569e-015 -6.36111e-015 1.59028e-015 -67.2377 -10.4013 -28.9328 47.2798 -0.996948 -121.379 -30.71 0.226574 37.774 28.4046 -2.30572 -9.93457 55.0097 -31.3495 26.2078 -9.52183 14.713 148.576 36.3266 2.21816 -27.0525 41.9337 -3.02517 -16.0161 -21.6411 27.0283 24.3963 -12.5955 17.964 2.68963 22.5763 -28.8778 8.29705 
-86.9902 86.229 -31.6122 -2.56849 -10.8694 -8.05398 -14.9526 -21.093 9.71548 -3.87447 27.6298 19.8103 33.3985 25.8139 -9.93524 -63.5862 -50.0616 -7.71421 -3.41312 11.2068 -1.61309 -14.3449 21.8872 -0.693633 6.36864 2.68219 6.53283 -7.95139e-016 3.18055e-015 -3.18055e-015 -67.6457 -13.6931 -26.8414 41.8538 0.307867 -123.068 -27.4701 1.3403 37.5414 29.3193 -2.53523 -10.4454 50.821 -28.8947 22.1904 -9.39437 13.9818 146.573 33.094 3.26455 -26.016 42.6811 -5.09962 -15.001 -22.217 28.8695 19.6384 -13.3021 21.2222 3.2091 28.3214 -34.1091 11.5716 
-85.7687 84.8033 -31.2451 -3.57119 -12.447 -7.06115 -14.8559 -20.0869 9.54867 -4.84101 29.6581 19.7235 35.6276 26.5407 -10.87 -70.531 -51.9351 -12.5924 -3.23015 11.9835 -1.25487 -14.0996 23.4624 0.0861025 8.6148 1.40078 1.4961 -7.95139e-016 3.18055e-015 3.18055e-015 -67.4958 -13.7777 -25.9576 40.9368 -2.83814 -124.874 -26.6406 1.60767 37.5288 30.1283 -2.7348 -10.8617 47.4687 -26.3341 18.5857 -8.79386 13.7419 144.416 28.6291 4.81701 -23.6947 42.9287 -7.15108 -13.4689 -22.3699 31.3083 15.7787 -12.2818 24.6541 3.30134 35.3621 -39.5187 15.8098 
-84.4968 83.4216 -30.8342 -4.45801 -13.8311 -5.9326 -14.8818 -18.8616 9.52929 -5.81458 31.0912 19.5487 37.8394 27.1474 -11.7974 -77.289 -53.0103 -17.8116 -3.24247 12.5971 -0.990365 -13.7311 24.7399 0.579302 10.8547 0.658439 -3.293 -4.37326e-015 -3.18055e-015 -0 -67.1146 -11.1718 -26.5633 42.7487 -9.00074 -126.138 -27.3666 1.3141 37.7574 31.1137 -2.98004 -11.3471 44.9552 -24.5972 15.6559 -8.0809 13.8437 142.809 25.0163 6.17218 -20.6819 42.8139 -9.16371 -11.7875 -22.3529 34.5127 14.3137 -9.00242 27.6121 2.59076 43.0986 -44.1502 21.0804 
-83.0856 82.1937 -30.3838 -5.21845 -14.9603 -4.70102 -15.1293 -17.4001 10.0486 -6.27306 31.8714 18.6138 39.2847 27.6428 -12.4571 -82.613 -53.1915 -22.382 -3.4062 13.0433 -0.841291 -13.2458 25.699 0.748421 12.8678 0.408858 -7.97454 -3.97569e-015 6.36111e-015 -2.38542e-015 -66.6259 -7.30987 -28.9441 45.0196 -15.0103 -126.497 -28.2259 1.00705 37.8655 32.3304 -3.31013 -11.9864 43.0757 -24.0172 13.5313 -7.60655 14.103 141.953 22.9283 7.09355 -17.8081 42.4112 -11.0194 -10.4159 -22.3249 38.246 15.4743 -3.76445 29.0648 1.01563 50.1937 -47.1239 26.7269 
-81.3976 81.1705 -29.9237 -5.83009 -15.8199 -3.46852 -15.6759 -15.7161 11.2935 -6.02129 31.9452 16.7469 39.4479 27.9499 -12.6218 -85.2956 -52.5892 -25.3203 -3.88866 13.3177 -0.741196 -12.6965 26.3403 0.63761 14.6007 0.430142 -12.6388 -6.75868e-015 -6.36111e-015 -2.38542e-015 -66.1364 -3.73968 -33.1383 45.7482 -17.8274 -126.762 -27.9503 1.12371 37.7673 33.7673 -3.75862 -12.8478 41.5602 -24.5993 12.2199 -7.43664 14.5386 141.67 21.9945 7.66449 -15.5438 41.6803 -12.5606 -9.60213 -22.3794 42.0258 18.4613 2.44908 28.5787 -0.96303 55.6899 -48.4763 31.8558 
-79.4515 80.478 -29.4933 -6.36101 -16.4079 -2.36807 -16.3395 -13.707 13.0624 -5.3869 30.9965 14.4614 38.3011 27.9334 -12.2219 -84.3964 -51.3646 -25.877 -4.28182 13.4312 -0.730488 -12.0488 26.6726 0.343057 16.0769 0.490981 -17.2706 -2.64834e-031 6.36111e-015 2.38542e-015 -65.8542 -1.18677 -38.7912 44.2822 -16.4173 -127.586 -26.3233 1.71929 37.4873 35.3968 -4.34445 -13.9472 40.2477 -26.2475 11.6753 -7.38059 15.4604 141.648 21.5275 8.01392 -14.0066 40.7754 -13.4164 -9.29073 -22.3573 44.7843 22.2137 8.81809 27.3582 -2.87928 60.4119 -48.9507 36.8265 
